<svg xmlns="http://www.w3.org/2000/svg" xmlns:svg="http://www.w3.org/2000/svg" id="svg8" width="967.325" height="742.888" version="1.1" viewBox="0 0 230.344 176.9"><metadata id="metadata5"/><g id="layer1" transform="translate(33.490079,-35.437279)"><flowRoot id="flowRoot915" xml:space="preserve" style="font-style:normal;font-weight:400;font-size:40px;line-height:1.25;font-family:sans-serif;letter-spacing:0;word-spacing:0;fill:#000;fill-opacity:1;stroke:none"><flowRegion id="flowRegion917"><rect id="rect919" width="28.946" height="42.078" x="2.02" y="169.946"/></flowRegion><flowPara id="flowPara921"/></flowRoot><text style="font-style:normal;font-weight:400;font-size:4.93888903px;line-height:1.25;font-family:sans-serif;letter-spacing:0;word-spacing:0;fill:#000;fill-opacity:1;stroke:none;stroke-width:.14601897" id="text1262" x="-24.571" y="84.471" xml:space="preserve"><tspan id="tspan1260" x="-24.571" y="84.471" style="font-size:4.93888903px;stroke-width:.14601897">High Level API</tspan></text><text style="font-style:normal;font-weight:400;font-size:4.93888903px;line-height:1.25;font-family:sans-serif;letter-spacing:0;word-spacing:0;fill:#000;fill-opacity:1;stroke:none;stroke-width:.14601897" id="text1262-8" x="-22.912" y="116.892" xml:space="preserve"><tspan id="tspan1260-8" x="-22.912" y="116.892" style="font-size:4.93888903px;stroke-width:.14601897">Low Level API</tspan></text><rect style="fill:#dbe0e6;fill-opacity:.99502486;stroke:none;stroke-width:.62844384;stroke-linecap:round;stroke-linejoin:round;stroke-miterlimit:4;stroke-dasharray:none;stroke-opacity:1" id="rect817" width="24.032" height="13.229" x="13.229" y="171.587" rx=".838" ry="1.31"/><text style="font-style:normal;font-weight:400;font-size:3.63932204px;line-height:1.25;font-family:sans-serif;text-align:center;letter-spacing:0;word-spacing:0;text-anchor:middle;fill:#000;fill-opacity:1;stroke:none;stroke-width:.27294916" id="text821" x="25.436" y="178.448" transform="scale(0.99395882,1.0060779)" xml:space="preserve"><tspan style="font-size:3.63932204px;text-align:center;text-anchor:middle;stroke-width:.27294916" id="tspan823" x="25.436" y="178.448">Gensim</tspan></text><rect style="fill:#dbe0e6;fill-opacity:.99502486;stroke:none;stroke-width:.62844384;stroke-linecap:round;stroke-linejoin:round;stroke-miterlimit:4;stroke-dasharray:none;stroke-opacity:1" id="rect817-3" width="24.032" height="13.229" x="103.585" y="171.587" rx=".838" ry="1.31"/><text style="font-style:normal;font-weight:400;font-size:3.63932204px;line-height:1.25;font-family:sans-serif;text-align:center;letter-spacing:0;word-spacing:0;text-anchor:middle;fill:#000;fill-opacity:1;stroke:none;stroke-width:.27294916" id="text821-6" x="116.34" y="178.426" transform="scale(0.99395882,1.0060779)" xml:space="preserve"><tspan style="font-size:3.63932204px;text-align:center;text-anchor:middle;stroke-width:.27294916" id="tspan823-5" x="116.34" y="178.426">Sklearn</tspan></text><rect style="fill:#dbe0e6;fill-opacity:.99502486;stroke:none;stroke-width:.62844384;stroke-linecap:round;stroke-linejoin:round;stroke-miterlimit:4;stroke-dasharray:none;stroke-opacity:1" id="rect817-3-3" width="24.032" height="13.229" x="73.466" y="171.587" rx=".838" ry="1.31"/><text style="font-style:normal;font-weight:400;font-size:3.63932204px;line-height:1.25;font-family:sans-serif;text-align:center;letter-spacing:0;word-spacing:0;text-anchor:middle;fill:#000;fill-opacity:1;stroke:none;stroke-width:.27294916" id="text821-6-5" x="85.826" y="178.425" transform="scale(0.99395882,1.0060779)" xml:space="preserve"><tspan style="font-size:3.63932204px;text-align:center;text-anchor:middle;stroke-width:.27294916" id="tspan823-5-2" x="85.826" y="178.425">NLTK</tspan></text><rect style="fill:#dbe0e6;fill-opacity:.99502486;stroke:none;stroke-width:.62844384;stroke-linecap:round;stroke-linejoin:round;stroke-miterlimit:4;stroke-dasharray:none;stroke-opacity:1" id="rect817-3-9" width="24.032" height="13.229" x="133.704" y="171.587" rx=".838" ry="1.31"/><text style="font-style:normal;font-weight:400;font-size:3.63932204px;line-height:1.25;font-family:sans-serif;text-align:center;letter-spacing:0;word-spacing:0;text-anchor:middle;fill:#000;fill-opacity:1;stroke:none;stroke-width:.27294916" id="text821-6-1" x="146.526" y="178.018" transform="scale(0.99395882,1.0060779)" xml:space="preserve"><tspan style="font-size:3.63932204px;text-align:center;text-anchor:middle;stroke-width:.27294916" id="tspan823-5-7" x="146.526" y="178.018">Spacy</tspan></text><rect style="fill:#dbe0e6;fill-opacity:.99502486;stroke:none;stroke-width:.62844384;stroke-linecap:round;stroke-linejoin:round;stroke-miterlimit:4;stroke-dasharray:none;stroke-opacity:1" id="rect817-3-0" width="24.032" height="13.229" x="163.822" y="171.587" rx=".838" ry="1.31"/><text style="font-style:normal;font-weight:400;font-size:3.63932204px;line-height:1.25;font-family:sans-serif;text-align:center;letter-spacing:0;word-spacing:0;text-anchor:middle;fill:#000;fill-opacity:1;stroke:none;stroke-width:.27294916" id="text821-6-9" x="176.823" y="178.36" transform="scale(0.99395882,1.0060779)" xml:space="preserve"><tspan style="font-size:3.63932204px;text-align:center;text-anchor:middle;stroke-width:.27294916" id="tspan823-5-6" x="176.823" y="178.36">Keras</tspan></text><rect style="fill:#dbe0e6;fill-opacity:.99502486;stroke:none;stroke-width:.62844384;stroke-linecap:round;stroke-linejoin:round;stroke-miterlimit:4;stroke-dasharray:none;stroke-opacity:1" id="rect817-3-06" width="24.032" height="13.229" x="43.622" y="171.587" rx=".838" ry="1.31"/><text style="font-style:normal;font-weight:400;font-size:3.63932204px;line-height:1.25;font-family:sans-serif;text-align:center;letter-spacing:0;word-spacing:0;text-anchor:middle;fill:#000;fill-opacity:1;stroke:none;stroke-width:.27294916" id="text821-6-2" x="55.945" y="178.072" transform="scale(0.99395882,1.0060779)" xml:space="preserve"><tspan style="font-size:3.63932204px;text-align:center;text-anchor:middle;stroke-width:.27294916" id="tspan823-5-8" x="55.945" y="178.072">Pythorch</tspan></text><rect style="fill:#e4cce3;fill-opacity:.99607843;stroke:none;stroke-width:.39564335;stroke-linecap:round;stroke-linejoin:round;stroke-miterlimit:4;stroke-dasharray:none;stroke-opacity:1" id="rect817-6" width="15.875" height="7.938" x="13.229" y="137.192" rx=".553" ry=".786"/><text style="font-style:normal;font-weight:400;font-size:2.30808425px;line-height:1.25;font-family:sans-serif;text-align:center;letter-spacing:0;word-spacing:0;text-anchor:middle;fill:#000;fill-opacity:1;stroke:none;stroke-width:.1731063" id="text821-7" x="20.733" y="144.331" transform="scale(1.0167087,0.9835659)" xml:space="preserve"><tspan style="font-size:2.30808425px;text-align:center;text-anchor:middle;stroke-width:.1731063" id="tspan823-53" x="20.733" y="144.331">FastText</tspan></text><rect style="fill:#e4cce3;fill-opacity:.99607843;stroke:none;stroke-width:.39564338;stroke-linecap:round;stroke-linejoin:round;stroke-miterlimit:4;stroke-dasharray:none;stroke-opacity:1" id="rect817-3-6" width="15.875" height="7.938" x="72.76" y="137.192" rx=".553" ry=".786"/><text style="font-style:normal;font-weight:400;font-size:2.30808425px;line-height:1.25;font-family:sans-serif;text-align:center;letter-spacing:0;word-spacing:0;text-anchor:middle;fill:#000;fill-opacity:1;stroke:none;stroke-width:.1731063" id="text821-6-29" x="79.276" y="144.331" transform="scale(1.0167087,0.9835659)" xml:space="preserve"><tspan style="font-size:2.30808425px;text-align:center;text-anchor:middle;stroke-width:.1731063" id="tspan823-5-1" x="79.276" y="144.331">Porter</tspan></text><rect style="fill:#e4cce3;fill-opacity:.99607843;stroke:none;stroke-width:.39564338;stroke-linecap:round;stroke-linejoin:round;stroke-miterlimit:4;stroke-dasharray:none;stroke-opacity:1" id="rect817-3-3-7" width="15.875" height="7.938" x="52.917" y="137.192" rx=".553" ry=".786"/><text style="font-style:normal;font-weight:400;font-size:2.30808425px;line-height:1.25;font-family:sans-serif;text-align:center;letter-spacing:0;word-spacing:0;text-anchor:middle;fill:#000;fill-opacity:1;stroke:none;stroke-width:.1731063" id="text821-6-5-0" x="59.756" y="144.343" transform="scale(1.0167087,0.9835659)" xml:space="preserve"><tspan style="font-size:2.30808425px;text-align:center;text-anchor:middle;stroke-width:.1731063" id="tspan823-5-2-9" x="59.756" y="144.343">BERT</tspan></text><rect style="fill:#e4cce3;fill-opacity:.99607843;stroke:none;stroke-width:.39564338;stroke-linecap:round;stroke-linejoin:round;stroke-miterlimit:4;stroke-dasharray:none;stroke-opacity:1" id="rect817-3-9-6" width="15.875" height="7.938" x="92.604" y="137.192" rx=".553" ry=".786"/><text style="font-style:normal;font-weight:400;font-size:2.30808425px;line-height:1.25;font-family:sans-serif;text-align:center;letter-spacing:0;word-spacing:0;text-anchor:middle;fill:#000;fill-opacity:1;stroke:none;stroke-width:.1731063" id="text821-6-1-0" x="98.894" y="144.385" transform="scale(1.0167087,0.9835659)" xml:space="preserve"><tspan style="font-size:2.30808425px;text-align:center;text-anchor:middle;stroke-width:.1731063" id="tspan823-5-7-6" x="98.894" y="144.385">Tokenizer</tspan></text><rect style="fill:#e4cce3;fill-opacity:.99607843;stroke:none;stroke-width:.39564347;stroke-linecap:round;stroke-linejoin:round;stroke-miterlimit:4;stroke-dasharray:none;stroke-opacity:1" id="rect817-3-0-6" width="15.875" height="7.938" x="112.448" y="137.192" rx=".553" ry=".786"/><text style="font-style:normal;font-weight:400;font-size:2.30808425px;line-height:1.25;font-family:sans-serif;text-align:center;letter-spacing:0;word-spacing:0;text-anchor:middle;fill:#000;fill-opacity:1;stroke:none;stroke-width:.1731063" id="text821-6-9-1" x="118.296" y="144.343" transform="scale(1.0167087,0.9835659)" xml:space="preserve"><tspan style="font-size:2.30808425px;text-align:center;text-anchor:middle;stroke-width:.1731063" id="tspan823-5-6-8" x="118.296" y="144.343">PCA</tspan></text><rect style="fill:#e4cce3;fill-opacity:.99607843;stroke:none;stroke-width:.39564332;stroke-linecap:round;stroke-linejoin:round;stroke-miterlimit:4;stroke-dasharray:none;stroke-opacity:1" id="rect817-3-06-9" width="15.875" height="7.938" x="33.073" y="137.192" rx=".553" ry=".786"/><text style="font-style:normal;font-weight:400;font-size:2.30808425px;line-height:1.25;font-family:sans-serif;text-align:center;letter-spacing:0;word-spacing:0;text-anchor:middle;fill:#000;fill-opacity:1;stroke:none;stroke-width:.1731063" id="text821-6-2-2" x="40.348" y="144.385" transform="scale(1.0167087,0.9835659)" xml:space="preserve"><tspan style="font-size:2.30808425px;text-align:center;text-anchor:middle;stroke-width:.1731063" id="tspan823-5-8-0" x="40.348" y="144.385">Word2Vect</tspan></text><rect style="fill:#e4cce3;fill-opacity:.99607843;stroke:none;stroke-width:.39564329;stroke-linecap:round;stroke-linejoin:round;stroke-miterlimit:4;stroke-dasharray:none;stroke-opacity:1" id="rect817-3-6-3" width="15.875" height="7.938" x="132.292" y="137.192" rx=".553" ry=".786"/><text style="font-style:normal;font-weight:400;font-size:2.30808425px;line-height:1.25;font-family:sans-serif;text-align:center;letter-spacing:0;word-spacing:0;text-anchor:middle;fill:#000;fill-opacity:1;stroke:none;stroke-width:.1731063" id="text821-6-29-7" x="137.977" y="144.343" transform="scale(1.0167087,0.9835659)" xml:space="preserve"><tspan style="font-size:2.30808425px;text-align:center;text-anchor:middle;stroke-width:.1731063" id="tspan823-5-1-5" x="137.977" y="144.343">SVM</tspan></text><rect style="fill:#e4cce3;fill-opacity:.99607843;stroke:none;stroke-width:.39564329;stroke-linecap:round;stroke-linejoin:round;stroke-miterlimit:4;stroke-dasharray:none;stroke-opacity:1" id="rect817-3-9-6-2" width="15.875" height="7.938" x="152.135" y="137.192" rx=".553" ry=".786"/><text style="font-style:normal;font-weight:400;font-size:2.30808425px;line-height:1.25;font-family:sans-serif;text-align:center;letter-spacing:0;word-spacing:0;text-anchor:middle;fill:#000;fill-opacity:1;stroke:none;stroke-width:.1731063" id="text821-6-1-0-2" x="157.441" y="144.343" transform="scale(1.0167087,0.9835659)" xml:space="preserve"><tspan style="font-size:2.30808425px;text-align:center;text-anchor:middle;stroke-width:.1731063" id="tspan823-5-7-6-8" x="157.441" y="144.343">LSTM</tspan></text><rect style="fill:#e4cce3;fill-opacity:.99607843;stroke:none;stroke-width:.39564329;stroke-linecap:round;stroke-linejoin:round;stroke-miterlimit:4;stroke-dasharray:none;stroke-opacity:1" id="rect817-3-0-6-7" width="15.875" height="7.938" x="171.979" y="137.192" rx=".553" ry=".786"/><text style="font-style:normal;font-weight:400;font-size:2.30808425px;line-height:1.25;font-family:sans-serif;text-align:center;letter-spacing:0;word-spacing:0;text-anchor:middle;fill:#000;fill-opacity:1;stroke:none;stroke-width:.1731063" id="text821-6-9-1-3" x="176.899" y="144.093" transform="scale(1.0167087,0.9835659)" xml:space="preserve"><tspan style="font-size:2.30808425px;text-align:center;text-anchor:middle;stroke-width:.1731063" id="tspan823-5-6-8-6" x="176.899" y="144.093">Naive Bayes</tspan></text><rect style="fill:#e4cce3;fill-opacity:.99607843;stroke:none;stroke-width:.3956435;stroke-linecap:round;stroke-linejoin:round;stroke-miterlimit:4;stroke-dasharray:none;stroke-opacity:1" id="rect817-6-2" width="15.875" height="7.938" x="13.229" y="147.775" rx=".553" ry=".786"/><text style="font-style:normal;font-weight:400;font-size:2.30614996px;line-height:1.25;font-family:sans-serif;text-align:center;letter-spacing:0;word-spacing:0;text-anchor:middle;fill:#000;fill-opacity:1;stroke:none;stroke-width:.17296122" id="text821-7-9" x="20.75" y="154.696" transform="scale(1.0158565,0.984391)" xml:space="preserve"><tspan style="font-size:2.30614996px;text-align:center;text-anchor:middle;stroke-width:.17296122" id="tspan823-53-3" x="20.75" y="154.696">Dropout</tspan></text><rect style="fill:#e4cce3;fill-opacity:.99607843;stroke:none;stroke-width:.3956435;stroke-linecap:round;stroke-linejoin:round;stroke-miterlimit:4;stroke-dasharray:none;stroke-opacity:1" id="rect817-3-6-9" width="15.875" height="7.938" x="72.76" y="147.775" rx=".553" ry=".786"/><text style="font-style:normal;font-weight:400;font-size:2.30614996px;line-height:1.25;font-family:sans-serif;text-align:center;letter-spacing:0;word-spacing:0;text-anchor:middle;fill:#000;fill-opacity:1;stroke:none;stroke-width:.17296122" id="text821-6-29-4" x="79.348" y="154.696" transform="scale(1.0158565,0.984391)" xml:space="preserve"><tspan style="font-size:2.30614996px;text-align:center;text-anchor:middle;stroke-width:.17296122" id="tspan823-5-1-7" x="79.348" y="154.696">Regex</tspan></text><rect style="fill:#e4cce3;fill-opacity:.99607843;stroke:none;stroke-width:.3956435;stroke-linecap:round;stroke-linejoin:round;stroke-miterlimit:4;stroke-dasharray:none;stroke-opacity:1" id="rect817-3-3-7-4" width="15.875" height="7.938" x="52.917" y="147.775" rx=".553" ry=".786"/><text style="font-style:normal;font-weight:400;font-size:2.30614996px;line-height:1.25;font-family:sans-serif;text-align:center;letter-spacing:0;word-spacing:0;text-anchor:middle;fill:#000;fill-opacity:1;stroke:none;stroke-width:.17296122" id="text821-6-5-0-5" x="59.924" y="154.973" transform="scale(1.0158565,0.984391)" xml:space="preserve"><tspan style="font-size:2.30614996px;text-align:center;text-anchor:middle;stroke-width:.17296122" id="tspan823-5-2-9-0" x="59.924" y="154.973">ID3</tspan></text><rect style="fill:#e4cce3;fill-opacity:.99607843;stroke:none;stroke-width:.3956435;stroke-linecap:round;stroke-linejoin:round;stroke-miterlimit:4;stroke-dasharray:none;stroke-opacity:1" id="rect817-3-9-6-6" width="15.875" height="7.938" x="92.604" y="147.775" rx=".553" ry=".786"/><text style="font-style:normal;font-weight:400;font-size:2.30614996px;line-height:1.25;font-family:sans-serif;text-align:center;letter-spacing:0;word-spacing:0;text-anchor:middle;fill:#000;fill-opacity:1;stroke:none;stroke-width:.17296122" id="text821-6-1-0-1" x="98.877" y="154.988" transform="scale(1.0158565,0.984391)" xml:space="preserve"><tspan style="font-size:2.30614996px;text-align:center;text-anchor:middle;stroke-width:.17296122" id="tspan823-5-7-6-0" x="98.877" y="154.988">Lemmatizer</tspan></text><rect style="fill:#e4cce3;fill-opacity:.99607843;stroke:none;stroke-width:.39564362;stroke-linecap:round;stroke-linejoin:round;stroke-miterlimit:4;stroke-dasharray:none;stroke-opacity:1" id="rect817-3-0-6-3" width="15.875" height="7.938" x="112.448" y="147.775" rx=".553" ry=".786"/><text style="font-style:normal;font-weight:400;font-size:2.30614996px;line-height:1.25;font-family:sans-serif;text-align:center;letter-spacing:0;word-spacing:0;text-anchor:middle;fill:#000;fill-opacity:1;stroke:none;stroke-width:.17296122" id="text821-6-9-1-2" x="118.493" y="154.696" transform="scale(1.0158565,0.984391)" xml:space="preserve"><tspan style="font-size:2.30614996px;text-align:center;text-anchor:middle;stroke-width:.17296122" id="tspan823-5-6-8-0" x="118.493" y="154.696">POS-Tag</tspan></text><rect style="fill:#e4cce3;fill-opacity:.99607843;stroke:none;stroke-width:.3956435;stroke-linecap:round;stroke-linejoin:round;stroke-miterlimit:4;stroke-dasharray:none;stroke-opacity:1" id="rect817-3-06-9-1" width="15.875" height="7.938" x="33.073" y="147.775" rx=".553" ry=".786"/><text style="font-style:normal;font-weight:400;font-size:2.30614996px;line-height:1.25;font-family:sans-serif;text-align:center;letter-spacing:0;word-spacing:0;text-anchor:middle;fill:#000;fill-opacity:1;stroke:none;stroke-width:.17296122" id="text821-6-2-2-5" x="40.386" y="154.973" transform="scale(1.0158565,0.984391)" xml:space="preserve"><tspan style="font-size:2.30614996px;text-align:center;text-anchor:middle;stroke-width:.17296122" id="tspan823-5-8-0-5" x="40.386" y="154.973">TF-IDF</tspan></text><rect style="fill:#e4cce3;fill-opacity:.99607843;stroke:none;stroke-width:.39564341;stroke-linecap:round;stroke-linejoin:round;stroke-miterlimit:4;stroke-dasharray:none;stroke-opacity:1" id="rect817-3-6-3-7" width="15.875" height="7.938" x="132.292" y="147.775" rx=".553" ry=".786"/><text style="font-style:normal;font-weight:400;font-size:2.30614996px;line-height:1.25;font-family:sans-serif;text-align:center;letter-spacing:0;word-spacing:0;text-anchor:middle;fill:#000;fill-opacity:1;stroke:none;stroke-width:.17296122" id="text821-6-29-7-6" x="137.929" y="154.977" transform="scale(1.0158565,0.984391)" xml:space="preserve"><tspan style="font-size:2.30614996px;text-align:center;text-anchor:middle;stroke-width:.17296122" id="tspan823-5-1-5-5" x="137.929" y="154.977">LDA</tspan></text><rect style="fill:#e4cce3;fill-opacity:.99607843;stroke:none;stroke-width:.39564341;stroke-linecap:round;stroke-linejoin:round;stroke-miterlimit:4;stroke-dasharray:none;stroke-opacity:1" id="rect817-3-9-6-2-9" width="15.875" height="7.938" x="152.135" y="147.775" rx=".553" ry=".786"/><text style="font-style:normal;font-weight:400;font-size:2.30614996px;line-height:1.25;font-family:sans-serif;text-align:center;letter-spacing:0;word-spacing:0;text-anchor:middle;fill:#000;fill-opacity:1;stroke:none;stroke-width:.17296122" id="text821-6-1-0-2-3" x="157.531" y="154.581" transform="scale(1.0158565,0.984391)" xml:space="preserve"><tspan style="font-size:2.30614996px;text-align:center;text-anchor:middle;stroke-width:.17296122" id="tspan823-5-7-6-8-7" x="157.531" y="154.581">CRF</tspan></text><rect style="fill:#e4cce3;fill-opacity:.99607843;stroke:none;stroke-width:.39564341;stroke-linecap:round;stroke-linejoin:round;stroke-miterlimit:4;stroke-dasharray:none;stroke-opacity:1" id="rect817-3-0-6-7-5" width="15.875" height="7.938" x="171.979" y="147.775" rx=".553" ry=".786"/><text style="font-style:normal;font-weight:400;font-size:2.30614996px;line-height:1.25;font-family:sans-serif;text-align:center;letter-spacing:0;word-spacing:0;text-anchor:middle;fill:#000;fill-opacity:1;stroke:none;stroke-width:.17296122" id="text821-6-9-1-3-2" x="177.15" y="154.797" transform="scale(1.0158565,0.984391)" xml:space="preserve"><tspan style="font-size:2.30614996px;text-align:center;text-anchor:middle;stroke-width:.17296122" id="tspan823-5-6-8-6-5" x="177.15" y="154.797">CNN</tspan></text><rect style="fill:#e4cce3;fill-opacity:.99502486;stroke:none;stroke-width:.7580772;stroke-linecap:round;stroke-linejoin:round;stroke-miterlimit:4;stroke-dasharray:none;stroke-opacity:1" id="rect909-4" width="174.625" height="7.858" x="13.229" y="158.438" rx="1.318" ry=".713"/><text style="font-style:normal;font-weight:400;font-size:10.58333302px;line-height:1.25;font-family:sans-serif;letter-spacing:0;word-spacing:0;fill:#000;fill-opacity:1;stroke:none;stroke-width:.26458332" id="text1258" x="81.083" y="163.997" xml:space="preserve"><tspan id="tspan1256" x="81.083" y="163.997" style="font-size:4.23333311px;stroke-width:.26458332">Algorithms Adapter</tspan></text><rect style="fill:#f2dbb3;fill-opacity:.99502486;stroke:none;stroke-width:.8946411;stroke-linecap:round;stroke-linejoin:round;stroke-miterlimit:4;stroke-dasharray:none;stroke-opacity:1" id="rect909-7-7" width="55.563" height="34.396" x="13.229" y="97.504" rx=".419" ry="3.123"/><text style="font-style:normal;font-weight:400;font-size:7.90843344px;line-height:1.25;font-family:sans-serif;letter-spacing:0;word-spacing:0;fill:#000;fill-opacity:1;stroke:none;stroke-width:.19771084" id="text913" x="24.168" y="108" xml:space="preserve"><tspan id="tspan911" x="24.168" y="108" style="stroke-width:.19771084">Grammar</tspan></text><text style="font-style:normal;font-weight:400;font-size:4.16713619px;line-height:1.25;font-family:sans-serif;text-align:center;letter-spacing:0;word-spacing:0;text-anchor:middle;fill:#000;fill-opacity:1;stroke:none;stroke-width:.1041784" id="text1275" x="40.913" y="118.572" xml:space="preserve"><tspan id="tspan1273" x="40.913" y="118.572" style="text-align:center;text-anchor:middle;stroke-width:.1041784">Context free grammar</tspan><tspan style="text-align:center;text-anchor:middle;stroke-width:.1041784" id="tspan1318" x="40.913" y="123.781">Distributions</tspan></text><rect style="fill:#f2dbb3;fill-opacity:.99502486;stroke:none;stroke-width:.89464104;stroke-linecap:round;stroke-linejoin:round;stroke-miterlimit:4;stroke-dasharray:none;stroke-opacity:1" id="rect909-7-4" width="55.562" height="34.396" x="72.76" y="97.504" rx=".419" ry="3.123"/><text style="font-style:normal;font-weight:400;font-size:7.77273989px;line-height:1.25;font-family:sans-serif;letter-spacing:0;word-spacing:0;fill:#000;fill-opacity:1;stroke:none;stroke-width:.19431849" id="text942" x="79.002" y="107.109" xml:space="preserve"><tspan id="tspan940" x="79.002" y="107.109" style="stroke-width:.19431849">Optimisation</tspan></text><text style="font-style:normal;font-weight:400;font-size:4.16713619px;line-height:1.25;font-family:sans-serif;text-align:center;letter-spacing:0;word-spacing:0;text-anchor:middle;fill:#000;fill-opacity:1;stroke:none;stroke-width:.1041784" id="text1275-4" x="100.34" y="115.957" xml:space="preserve"><tspan style="text-align:center;text-anchor:middle;stroke-width:.1041784" id="tspan1312" x="100.34" y="115.957">Sampling</tspan><tspan style="text-align:center;text-anchor:middle;stroke-width:.1041784" id="tspan1316" x="100.881" y="121.166">Probabilistic Grammatical </tspan><tspan style="text-align:center;text-anchor:middle;stroke-width:.1041784" id="tspan1314" x="100.34" y="126.375">Evolution</tspan></text><rect style="fill:#f2dbb3;fill-opacity:.99502486;stroke:none;stroke-width:.89464116;stroke-linecap:round;stroke-linejoin:round;stroke-miterlimit:4;stroke-dasharray:none;stroke-opacity:1" id="rect909-7" width="55.563" height="34.396" x="132.292" y="97.504" rx=".419" ry="3.123"/><text style="font-style:normal;font-weight:400;font-size:7.90843344px;line-height:1.25;font-family:sans-serif;letter-spacing:0;word-spacing:0;fill:#000;fill-opacity:1;stroke:none;stroke-width:.19771084" id="text961" x="143.827" y="107.233" xml:space="preserve"><tspan id="tspan959" x="143.827" y="107.233" style="stroke-width:.19771084">Pipelines</tspan></text><text style="font-style:normal;font-weight:400;font-size:4.16713619px;line-height:1.25;font-family:sans-serif;text-align:center;letter-spacing:0;word-spacing:0;text-anchor:middle;fill:#000;fill-opacity:1;stroke:none;stroke-width:.1041784" id="text1275-7" x="160.24" y="120.686" xml:space="preserve"><tspan style="text-align:center;text-anchor:middle;stroke-width:.1041784" id="tspan1277-6" x="160.24" y="120.686">Algorithms graph</tspan></text><rect style="fill:#b7cff5;fill-opacity:.99502486;stroke:none;stroke-width:.81038523;stroke-linecap:round;stroke-linejoin:round;stroke-miterlimit:4;stroke-dasharray:none;stroke-opacity:1" id="rect909" width="84.667" height="18.521" x="13.229" y="73.692" rx=".639" ry="1.682"/><text style="font-style:normal;font-weight:400;font-size:10.58333302px;line-height:1.25;font-family:sans-serif;letter-spacing:0;word-spacing:0;fill:#000;fill-opacity:1;stroke:none;stroke-width:.26458332" id="text1352" x="31.417" y="85.917" xml:space="preserve"><tspan id="tspan1350" x="31.417" y="85.917" style="font-size:7.9057498px;stroke-width:.26458332">AutoML Class</tspan></text><rect style="fill:#b7cff5;fill-opacity:.99502486;stroke:none;stroke-width:.81669182;stroke-linecap:round;stroke-linejoin:round;stroke-miterlimit:4;stroke-dasharray:none;stroke-opacity:1" id="rect909-43" width="85.99" height="18.521" x="101.865" y="73.692" rx=".649" ry="1.682"/><text style="font-style:normal;font-weight:400;font-size:10.58333302px;line-height:1.25;font-family:sans-serif;letter-spacing:0;word-spacing:0;fill:#000;fill-opacity:1;stroke:none;stroke-width:.26458332" id="text1352-1" x="107.961" y="84.917" xml:space="preserve"><tspan id="tspan1350-4" x="107.961" y="84.917" style="font-size:7.9057498px;stroke-width:.26458332">Semantic Datatypes</tspan></text><text style="font-style:normal;font-weight:400;font-size:4.93888903px;line-height:1.25;font-family:sans-serif;text-align:end;letter-spacing:0;word-spacing:0;text-anchor:end;fill:#000;fill-opacity:1;stroke:none;stroke-width:.14601898" id="text1262-8-3" x="8.472" y="144.32" xml:space="preserve"><tspan id="tspan1260-8-6" x="9.755" y="144.32" style="font-size:4.93888903px;text-align:end;text-anchor:end;stroke-width:.14601898">Algorithms </tspan><tspan style="font-size:4.93888903px;text-align:end;text-anchor:end;stroke-width:.14601898" id="tspan1319" x="8.472" y="150.494">Library</tspan></text><text style="font-style:normal;font-weight:400;font-size:4.93888903px;line-height:1.25;font-family:sans-serif;text-align:end;letter-spacing:0;word-spacing:0;text-anchor:end;fill:#000;fill-opacity:1;stroke:none;stroke-width:.14601898" id="text1262-8-3-7" x="8.693" y="176.742" xml:space="preserve"><tspan style="font-size:4.93888903px;text-align:end;text-anchor:end;stroke-width:.14601898" id="tspan1319-3" x="8.693" y="176.742">External</tspan><tspan style="font-size:4.93888903px;text-align:end;text-anchor:end;stroke-width:.14601898" id="tspan1344" x="8.693" y="182.915">Libraries</tspan></text><rect style="fill:#dbe0e6;fill-opacity:.99502486;stroke:none;stroke-width:.62844384;stroke-linecap:round;stroke-linejoin:round;stroke-miterlimit:4;stroke-dasharray:none;stroke-opacity:1" id="rect817-36" width="24.032" height="13.229" x="13.229" y="190.108" rx=".838" ry="1.31"/><text style="font-style:normal;font-weight:400;font-size:3.63932204px;line-height:1.25;font-family:sans-serif;text-align:center;letter-spacing:0;word-spacing:0;text-anchor:middle;fill:#000;fill-opacity:1;stroke:none;stroke-width:.27294916" id="text821-75" x="25.436" y="196.857" transform="scale(0.99395882,1.0060779)" xml:space="preserve"><tspan style="font-size:3.63932204px;text-align:center;text-anchor:middle;stroke-width:.27294916" id="tspan823-3" x="25.436" y="196.857">Wikipedia</tspan></text><rect style="fill:#dbe0e6;fill-opacity:.99502486;stroke:none;stroke-width:.62844384;stroke-linecap:round;stroke-linejoin:round;stroke-miterlimit:4;stroke-dasharray:none;stroke-opacity:1" id="rect817-3-3-1" width="24.032" height="13.229" x="73.467" y="190.108" rx=".838" ry="1.31"/><text style="font-style:normal;font-weight:400;font-size:3.63932204px;line-height:1.25;font-family:sans-serif;text-align:center;letter-spacing:0;word-spacing:0;text-anchor:middle;fill:#000;fill-opacity:1;stroke:none;stroke-width:.27294916" id="text821-6-5-2" x="85.826" y="196.834" transform="scale(0.99395882,1.0060779)" xml:space="preserve"><tspan style="font-size:3.63932204px;text-align:center;text-anchor:middle;stroke-width:.27294916" id="tspan823-5-2-7" x="85.826" y="196.834">SentiWordnet</tspan></text><rect style="fill:#dbe0e6;fill-opacity:.99502486;stroke:none;stroke-width:.62844384;stroke-linecap:round;stroke-linejoin:round;stroke-miterlimit:4;stroke-dasharray:none;stroke-opacity:1" id="rect817-3-06-6" width="24.032" height="13.229" x="43.622" y="190.108" rx=".838" ry="1.31"/><text style="font-style:normal;font-weight:400;font-size:3.63932204px;line-height:1.25;font-family:sans-serif;text-align:center;letter-spacing:0;word-spacing:0;text-anchor:middle;fill:#000;fill-opacity:1;stroke:none;stroke-width:.27294916" id="text821-6-2-1" x="55.946" y="196.481" transform="scale(0.99395882,1.0060779)" xml:space="preserve"><tspan style="font-size:3.63932204px;text-align:center;text-anchor:middle;stroke-width:.27294916" id="tspan823-5-8-8" x="55.946" y="196.481">Wordnet</tspan></text><text style="font-style:normal;font-weight:400;font-size:4.93888903px;line-height:1.25;font-family:sans-serif;text-align:end;letter-spacing:0;word-spacing:0;text-anchor:end;fill:#000;fill-opacity:1;stroke:none;stroke-width:.14601898" id="text1262-8-3-7-7" x="8.693" y="195.263" xml:space="preserve"><tspan style="font-size:4.93888903px;text-align:end;text-anchor:end;stroke-width:.14601898" id="tspan1319-3-9" x="8.693" y="195.263">External</tspan><tspan style="font-size:4.93888903px;text-align:end;text-anchor:end;stroke-width:.14601898" id="tspan1344-2" x="8.693" y="201.436">Resources</tspan></text><g id="g1083" transform="translate(1.0205357,0.34017856)"><text id="text1208-3-4-5" x="142.162" y="200.76" xml:space="preserve" style="font-style:normal;font-weight:400;font-size:3.67940044px;line-height:1.25;font-family:sans-serif;letter-spacing:0;word-spacing:0;fill:#7e251b;fill-opacity:1;stroke:none;stroke-width:.09198501"><tspan style="font-style:normal;font-variant:normal;font-weight:400;font-stretch:normal;font-family:Ubuntu;-inkscape-font-specification:Ubuntu;fill:#7e251b;fill-opacity:1;stroke-width:.09198501" id="tspan1206-7-4-6" x="142.162" y="200.76">https://autogoal.github.io</tspan></text><path id="path1070" d="m 136.14491,202.70589 c -0.41988,-0.17219 -0.74222,-0.3814 -1.05387,-0.68399 -0.48081,-0.46685 -0.78408,-1.02263 -0.9108,-1.66914 -0.0562,-0.28651 -0.0721,-0.65655 -0.0407,-0.94573 0.065,-0.59916 0.31532,-1.20042 0.69526,-1.67006 0.12782,-0.158 0.39422,-0.41354 0.55816,-0.53541 0.46128,-0.34292 1.00652,-0.55776 1.57114,-0.61908 0.17238,-0.0187 0.51355,-0.0187 0.68593,0 0.94683,0.10282 1.79517,0.62182 2.3168,1.41736 0.48354,0.73745 0.62792,1.66026 0.3984,2.54645 -0.19359,0.74747 -0.66035,1.39674 -1.32218,1.83912 -0.2332,0.15588 -0.69066,0.36684 -0.79548,0.36684 -0.0611,0 -0.10686,-0.0269 -0.13048,-0.0767 -0.0181,-0.0381 -0.0214,-0.12226 -0.0214,-0.54335 0,-0.54702 -0.009,-0.63965 -0.0789,-0.79506 -0.0212,-0.0473 -0.0586,-0.11225 -0.0831,-0.14431 l -0.0445,-0.0583 0.0514,-0.008 c 0.16308,-0.0263 0.40535,-0.0817 0.49151,-0.1124 0.57544,-0.20483 0.85785,-0.6298 0.89045,-1.33999 0.01,-0.21827 -0.01,-0.38344 -0.0657,-0.55122 -0.0468,-0.1401 -0.0876,-0.21622 -0.17992,-0.33558 l -0.0653,-0.0844 0.0277,-0.0817 c 0.0567,-0.16736 0.0472,-0.46074 -0.0216,-0.66967 l -0.0296,-0.0899 -0.11068,8.7e-4 c -0.16689,0.001 -0.37019,0.0764 -0.62951,0.23307 l -0.13143,0.0794 -0.13836,-0.029 c -0.44814,-0.0938 -0.91955,-0.0934 -1.34944,0.001 l -0.13194,0.029 -0.10086,-0.0652 c -0.24186,-0.15646 -0.52833,-0.26183 -0.68915,-0.25349 l -0.0806,0.004 -0.0296,0.0899 c -0.0683,0.20739 -0.0778,0.49605 -0.022,0.6725 l 0.0267,0.0845 -0.0613,0.0815 c -0.0822,0.10925 -0.17647,0.30564 -0.21187,0.44124 -0.0816,0.31265 -0.0314,0.8196 0.11146,1.12438 0.20543,0.43836 0.56516,0.66296 1.23466,0.77086 l 0.0519,0.008 -0.0499,0.0513 c -0.0739,0.0759 -0.12822,0.19308 -0.15019,0.32406 -0.008,0.0506 -0.0105,0.052 -0.12152,0.0871 -0.151,0.0477 -0.29642,0.0582 -0.40827,0.0295 -0.17588,-0.0452 -0.27118,-0.11867 -0.39754,-0.30664 -0.0432,-0.0642 -0.10965,-0.14475 -0.14776,-0.17901 -0.0902,-0.0811 -0.22198,-0.14532 -0.31858,-0.15529 -0.0828,-0.009 -0.17014,0.0124 -0.18217,0.0438 -0.0102,0.0265 0.0363,0.0819 0.1132,0.13469 0.16282,0.11187 0.24925,0.22173 0.36468,0.46357 0.16381,0.34322 0.4309,0.49213 0.84108,0.46896 0.0877,-0.005 0.17999,-0.0128 0.20513,-0.0174 l 0.0457,-0.008 -0.004,0.31261 c -0.004,0.30131 -0.005,0.31372 -0.0348,0.34318 -0.0231,0.0231 -0.0501,0.0316 -0.11068,0.0346 -0.0681,0.003 -0.10185,-0.005 -0.22536,-0.0555 z" style="fill:#000;stroke-width:.01383524"/></g><g id="g1119" transform="matrix(1.1579177,0,0,1.1579177,-15.656774,-12.002)"><g style="font-style:normal;font-weight:400;font-size:151.26686096px;line-height:1.25;font-family:sans-serif;letter-spacing:0;word-spacing:0;fill:#ff6151;fill-opacity:1;stroke:none;stroke-width:3.78167129" id="text1198-5-5-3" aria-label="AutoGOAL" transform="matrix(0.08170395,0,0,0.08170395,63.810632,168.70422)"><path style="font-style:normal;font-variant:normal;font-weight:400;font-stretch:normal;font-family:Ubuntu;-inkscape-font-specification:Ubuntu;fill:#ff6151;fill-opacity:1;stroke-width:3.78167129" id="path848" d="m 127.66729,-1357.4485 36.44108,-80.6932 48.93483,107.8479 h -16.03428 l -33.27871,-82.7456 -19.51343,43.87 h 30.6744 l 4.65573,11.7209 m -41.48913,5.4621 -7.60628,21.6926 h -15.27796 l 10.46289,-21.6926"/><path style="font-style:normal;font-variant:normal;font-weight:400;font-stretch:normal;font-family:Ubuntu;-inkscape-font-specification:Ubuntu;fill:#ff6151;fill-opacity:1;stroke-width:3.78167129" id="path850" d="m 286.4809,-1332.5628 q -4.84054,1.2101 -12.85768,2.5715 -7.86588,1.3614 -18.30329,1.3614 -9.07601,0 -15.27795,-2.5715 -6.20194,-2.7228 -9.98362,-7.5634 -3.78167,-4.8405 -5.4456,-11.345 -1.66394,-6.6557 -1.66394,-14.6729 v -44.1699 h 14.06782 v 41.1446 q 0,14.3703 4.53801,20.5723 4.538,6.2019 15.27795,6.2019 2.269,0 4.68927,-0.1512 2.42027,-0.1513 4.53801,-0.3026 2.11773,-0.3025 3.78167,-0.4538 1.8152,-0.3025 2.57153,-0.605 v -66.4062 h 14.06782 z"/><path style="font-style:normal;font-variant:normal;font-weight:400;font-stretch:normal;font-family:Ubuntu;-inkscape-font-specification:Ubuntu;fill:#ff6151;fill-opacity:1;stroke-width:3.78167129" id="path852" d="m 327.77707,-1408.9526 h 25.89941 v 11.7988 h -25.89941 m -3.90016,36.3041 c 0,3.9329 0.30253,7.2104 0.9076,9.8323 0.60507,2.5211 1.51267,4.538 2.7228,6.0507 1.21013,1.4118 2.7228,2.4202 4.53801,3.0253 1.8152,0.6051 3.93294,0.9076 6.35321,0.9076 4.23547,0 7.61376,-0.4538 10.13488,-1.3614 2.62195,-1.0084 4.43715,-1.7143 5.4456,-2.1177 l 2.72281,11.6475 c -1.41183,0.7059 -3.88252,1.5631 -7.41208,2.5716 -3.52956,1.1093 -7.56334,1.6639 -12.10135,1.6639 -5.34476,0 -9.78192,-0.6555 -13.31148,-1.9665 -3.42872,-1.4118 -6.20195,-3.4791 -8.31968,-6.2019 -2.11773,-2.7228 -3.6304,-6.0507 -4.53801,-9.9836 -0.80675,-4.0338 -1.21013,-8.6727 -1.21013,-13.9166 v -70.1878 l 14.06782,-2.4203"/><path style="font-style:normal;font-variant:normal;font-weight:400;font-stretch:normal;font-family:Ubuntu;-inkscape-font-specification:Ubuntu;fill:#ff6151;fill-opacity:1;stroke-width:3.78167129" id="path854" d="m 438.94135,-1369.6232 q 0,9.3785 -2.72281,16.9419 -2.7228,7.5633 -7.71461,13.0089 -4.84054,5.4456 -11.64755,8.471 -6.807,2.874 -14.82415,2.874 -8.01714,0 -14.82415,-2.874 -6.80701,-3.0254 -11.79882,-8.471 -4.84053,-5.4456 -7.56334,-13.0089 -2.7228,-7.5634 -2.7228,-16.9419 0,-9.2273 2.7228,-16.7906 2.72281,-7.7146 7.56334,-13.1602 4.99181,-5.4457 11.79882,-8.3197 6.80701,-3.0254 14.82415,-3.0254 8.01715,0 14.82415,3.0254 6.80701,2.874 11.64755,8.3197 4.99181,5.4456 7.71461,13.1602 2.72281,7.5633 2.72281,16.7906 z m -14.67289,0 q 0,-13.3115 -6.05067,-21.0261 -5.89941,-7.8659 -16.18556,-7.8659 -10.28614,0 -16.33682,7.8659 -5.89941,7.7146 -5.89941,21.0261 0,13.3115 5.89941,21.1774 6.05068,7.7146 16.33682,7.7146 10.28615,0 16.18556,-7.7146 6.05067,-7.8659 6.05067,-21.1774 z"/><path style="font-style:normal;font-variant:normal;font-weight:700;font-stretch:normal;font-family:Ubuntu;-inkscape-font-specification:'Ubuntu Bold';stroke-width:3.83816361" id="path856" d="m 513.65411,-1417.12 c -11.32292,0 -19.52944,3.226 -24.61956,9.3775 -4.98624,6.0507 -7.47936,14.3704 -7.47936,24.9591 0,5.1431 0.62328,9.8323 1.86984,14.0678 1.24655,4.1346 3.1164,7.7146 5.60952,10.7399 2.49312,3.0253 5.60951,5.3952 9.3492,7.1096 3.73968,1.6135 8.10385,3.3614 13.08888,3.2514 h 17.03466 v -25.4239 h -38.3998 c -2.46629,-0.7997 -2.31709,-16.7185 0.0346,-18.3867 h 56.35262 v 62.4656 h -37.80839 c -7.0858,0 -14.08251,-1.1164 -20.89837,-2.9981 -6.54444,-2.4203 -12.15395,-5.9498 -16.82855,-10.5886 -4.67461,-4.6389 -8.31041,-10.3366 -10.9074,-17.0932 -2.49312,-6.7566 -3.73968,-14.4712 -3.73968,-23.1438 0,-8.7735 1.40238,-16.5385 4.20713,-23.2951 2.80477,-6.7566 6.64833,-12.4543 11.53069,-17.0932 4.88235,-4.7397 10.59575,-8.3196 17.14019,-10.7399 6.64832,-2.4203 13.54513,-3.4333 21.19153,-3.2328 h 36.11285 v 38.7491 h -17.98742 v -18.7247 h -14.8532 z"/><path style="font-style:normal;font-variant:normal;font-weight:700;font-stretch:normal;font-family:Ubuntu;-inkscape-font-specification:'Ubuntu Bold'" id="path858" d="m 585.67206,-1382.7834 q 0,7.7146 1.8152,13.9165 1.96647,6.202 5.44561,10.74 3.6304,4.3867 8.77348,6.807 5.14307,2.4203 11.79881,2.4203 6.50448,0 11.64755,-2.4203 5.29434,-2.4203 8.77348,-6.807 3.6304,-4.538 5.4456,-10.74 1.96647,-6.2019 1.96647,-13.9165 0,-7.7146 -1.96647,-13.9166 -1.8152,-6.3532 -5.4456,-10.7399 -3.47914,-4.538 -8.77348,-6.9583 -5.14307,-2.4203 -11.64755,-2.4203 -6.65574,0 -11.79881,2.5716 -5.14308,2.4202 -8.77348,6.9582 -3.47914,4.3868 -5.44561,10.74 -1.8152,6.2019 -1.8152,13.7653 z m 80.02017,0 q 0,13.4627 -4.08421,23.7489 -3.93294,10.1349 -10.89121,17.0931 -6.95828,6.807 -16.63936,10.2862 -9.52981,3.4791 -20.57229,3.4791 -10.73995,0 -20.26976,-3.4791 -9.52981,-3.4792 -16.63935,-10.2862 -7.10955,-6.9582 -11.19375,-17.0931 -4.08421,-10.2862 -4.08421,-23.7489 0,-13.4628 4.23548,-23.5977 4.23547,-10.2861 11.34501,-17.2444 7.26081,-6.9583 16.63936,-10.4374 9.52981,-3.4791 19.96722,-3.4791 10.73995,0 20.26976,3.4791 9.52981,3.4791 16.63936,10.4374 7.10954,6.9583 11.19374,17.2444 4.08421,10.1349 4.08421,23.5977 z"/><path style="font-style:normal;font-variant:normal;font-weight:700;font-stretch:normal;font-family:Ubuntu;-inkscape-font-specification:'Ubuntu Bold';stroke-width:14.2929306" id="path860" d="m 4481.377,210.54883 -161.254,366.21289 h 213.7344 l -25.0722,-71.18945 h -83.7735 l 56.0274,-139.79102 106.9121,296.44141 h 95.4765 z" transform="matrix(0.26458333,0,0,0.26458333,-463.39141,-1505.5067)"/><path style="font-style:normal;font-variant:normal;font-weight:700;font-stretch:normal;font-family:Ubuntu;-inkscape-font-specification:'Ubuntu Bold'" id="path862" d="m 859.37109,-1350.5636 v 20.2698 h -70.03656 v -104.828 h 23.59763 v 84.5582 z"/><path style="font-style:normal;font-variant:normal;font-weight:700;font-stretch:normal;font-size:151.26686096px;line-height:1.25;font-family:Ubuntu;-inkscape-font-specification:'Ubuntu Bold';letter-spacing:0;word-spacing:0;display:inline;fill:#ff6151;fill-opacity:1;stroke:none;stroke-width:3.78167129" id="path860-0" d="m 677.52445,-1348.0641 -7.79745,17.7705 h 24.50549 l 5.54434,-17.7705 z"/></g><text style="font-style:normal;font-weight:400;font-size:2.39907789px;line-height:1.25;font-family:sans-serif;letter-spacing:0;word-spacing:0;fill:#7e251b;fill-opacity:1;stroke:none;stroke-width:.05997695" id="text1208-3-4-6" x="72.86" y="63.03" xml:space="preserve"><tspan id="tspan1206-7-4-1" x="72.86" y="63.03" style="font-style:normal;font-variant:normal;font-weight:400;font-stretch:normal;font-family:Ubuntu;-inkscape-font-specification:Ubuntu;fill:#7e251b;fill-opacity:1;stroke-width:.05997695">Automatic Generation, Optimization &amp; Artificial Learning</tspan></text><path style="color:#000;font-style:normal;font-variant:normal;font-weight:400;font-stretch:normal;font-size:medium;line-height:normal;font-family:sans-serif;font-variant-ligatures:normal;font-variant-position:normal;font-variant-caps:normal;font-variant-numeric:normal;font-variant-alternates:normal;font-feature-settings:normal;text-indent:0;text-align:start;text-decoration:none;text-decoration-line:none;text-decoration-style:solid;text-decoration-color:#000;letter-spacing:normal;word-spacing:normal;text-transform:none;writing-mode:lr-tb;direction:ltr;text-orientation:mixed;dominant-baseline:auto;baseline-shift:baseline;text-anchor:start;white-space:normal;shape-padding:0;clip-rule:nonzero;display:inline;overflow:visible;visibility:visible;opacity:1;isolation:auto;mix-blend-mode:normal;color-interpolation:sRGB;color-interpolation-filters:linearRGB;solid-color:#000;solid-opacity:1;vector-effect:none;fill:#ff6151;fill-opacity:1;fill-rule:nonzero;stroke:none;stroke-width:1.81665242;stroke-linecap:butt;stroke-linejoin:miter;stroke-miterlimit:4;stroke-dasharray:none;stroke-dashoffset:0;stroke-opacity:1;color-rendering:auto;image-rendering:auto;shape-rendering:auto;text-rendering:auto;enable-background:accumulate" id="path1343-3-7-5-2" d="m 60.799511,46.900911 -6.832719,10.858267 h 5.382278 v -1.825193 h -2.131656 l 2.658434,-4.29275 v 15.221103 h 1.816564 V 62.66068 l 8.168533,-1.546705 -3.298389,-5.17999 h -4.396175 v 1.825193 h 3.514304 l 1.464984,2.191243 -5.453257,0.860702 v -9.169888 l 2.224725,3.726673 h 2.289092 z m -7.165728,11.435538 -1.738905,2.765401 2.197403,0.429411 1.894187,-3.194812 z"/></g></g></svg>